<svg aria-hidden="true" style="position: absolute; width: 0; height: 0; overflow: hidden;" version="1.1" xmlns="http://www.w3.org/2000/svg" xmlns:xlink="http://www.w3.org/1999/xlink">
<defs>
<symbol id="icon-react" viewBox="0 0 36 32">
<path fill="#00d8ff" style="fill: var(--color1, #00d8ff)" d="M17.981 19.208c1.804 0 3.266-1.45 3.266-3.238s-1.462-3.239-3.266-3.239c-1.804 0-3.266 1.45-3.266 3.239s1.462 3.238 3.266 3.238z"></path>
<path fill="#00d8ff" style="fill: var(--color1, #00d8ff)" d="M35.070 15.97c0-0.684-0.456-1.49-1.449-2.311-0.92-0.761-2.247-1.489-3.908-2.088l-0.336-0.118c-3.019-1.030-7.045-1.65-11.394-1.65h-0.001c-4.256 0-8.261 0.594-11.261 1.584l-0.287 0.097c-1.791 0.619-3.196 1.388-4.145 2.192-0.958 0.813-1.395 1.613-1.395 2.295 0 0.707 0.47 1.559 1.491 2.426 1.009 0.857 2.498 1.676 4.385 2.315l0.282 0.093c2.946 0.946 6.82 1.398 10.931 1.398 4.133 0 8.040-0.512 10.99-1.481l0.361-0.123c1.784-0.622 3.204-1.387 4.187-2.19 1.062-0.867 1.549-1.721 1.549-2.439zM35.903 15.97c0 1.089-0.718 2.156-1.855 3.084-1.078 0.88-2.593 1.688-4.442 2.332l-0.374 0.126c-3.059 1.005-7.059 1.523-11.25 1.523-4.158 0-8.127-0.456-11.187-1.438l-0.293-0.097c-1.957-0.663-3.547-1.527-4.657-2.469-1.097-0.931-1.785-1.996-1.785-3.061 0-1.038 0.649-2.048 1.689-2.931 1.050-0.89 2.555-1.703 4.412-2.345l0.297-0.101c3.103-1.023 7.201-1.626 11.523-1.626h0.001c4.42 0 8.54 0.628 11.664 1.695l0.349 0.123c1.724 0.622 3.144 1.392 4.158 2.23 1.069 0.885 1.751 1.903 1.751 2.953z"></path>
<path fill="#00d8ff" style="fill: var(--color1, #00d8ff)" d="M23.456 0.617c1.307-0.476 2.534-0.552 3.448-0.030l0.088 0.053c0.897 0.562 1.442 1.684 1.678 3.081 0.23 1.367 0.179 3.072-0.182 4.983l-0.076 0.385c-0.63 3.033-2.101 6.597-4.096 10.090l-0.195 0.338c-2.077 3.572-4.459 6.755-6.846 8.893l-0.231 0.204c-1.557 1.35-3.106 2.285-4.483 2.767-1.362 0.477-2.632 0.535-3.56 0.005v0c-0.904-0.517-1.463-1.579-1.714-2.914-0.254-1.348-0.212-3.048 0.155-4.965l0.061-0.305c0.656-3.179 2.178-7 4.337-10.714l0.133-0.229h0.002c2.179-3.698 4.732-6.838 7.174-8.945l0.281-0.239c1.405-1.17 2.786-2.005 4.025-2.457zM26.491 1.31c-0.601-0.343-1.536-0.354-2.75 0.089-1.125 0.41-2.423 1.187-3.776 2.314l-0.272 0.23c-2.408 2.078-4.96 5.227-7.133 8.963l-0.078 0.133c-2.084 3.612-3.537 7.295-4.164 10.328l-0.059 0.295c-0.354 1.848-0.384 3.438-0.155 4.654 0.231 1.228 0.711 2.003 1.309 2.345h0l0.059 0.033c0.623 0.323 1.584 0.33 2.811-0.1 1.253-0.439 2.712-1.31 4.213-2.611l0.222-0.196c2.297-2.057 4.627-5.159 6.68-8.689l0.192-0.333c1.966-3.443 3.397-6.923 4.003-9.845l0.074-0.372c0.348-1.842 0.389-3.444 0.179-4.688-0.219-1.301-0.697-2.136-1.3-2.514l-0.058-0.035z"></path>
<path fill="#00d8ff" style="fill: var(--color1, #00d8ff)" d="M9.066 0.585c0.937-0.489 2.188-0.398 3.525 0.097 1.395 0.517 2.967 1.501 4.558 2.902l0.226 0.202c2.338 2.119 4.706 5.206 6.741 8.691l0.2 0.346c2.051 3.572 3.596 7.193 4.212 10.278l0.071 0.375c0.335 1.861 0.358 3.526 0.108 4.862-0.256 1.367-0.812 2.462-1.69 3.014l-0.086 0.052c-0.902 0.518-2.107 0.468-3.398 0.018-1.221-0.426-2.584-1.231-3.977-2.378l-0.279-0.234c-2.233-1.905-4.589-4.718-6.653-8.001v0.050l-0.777-1.33c-2.215-3.793-3.73-7.645-4.366-10.862-0.382-1.938-0.444-3.672-0.204-5.049 0.237-1.363 0.784-2.457 1.699-2.982l0.090-0.049zM12.301 1.463c-1.248-0.462-2.219-0.469-2.851-0.14l-0.060 0.034c-0.599 0.343-1.074 1.14-1.293 2.402-0.217 1.248-0.168 2.875 0.201 4.745l0.060 0.293c0.625 2.95 2.004 6.46 4.005 9.96l0.202 0.35 0.207 0.352c2.157 3.618 4.689 6.706 7.044 8.716l0.269 0.226c1.34 1.103 2.617 1.848 3.722 2.234 1.189 0.415 2.109 0.39 2.708 0.046l0.058-0.034c0.593-0.373 1.077-1.193 1.314-2.462 0.227-1.213 0.213-2.772-0.108-4.559l-0.069-0.361c-0.592-2.964-2.092-6.498-4.117-10.026l-0.198-0.341c-2.006-3.436-4.325-6.448-6.58-8.493l-0.218-0.195c-1.539-1.355-3.024-2.274-4.297-2.745z"></path>
</symbol>
<symbol id="icon-figma-icon" viewBox="0 0 32 32">
<path fill="#0acf83" style="fill: var(--color2, #0acf83)" d="M10.671 32c2.946 0 5.333-2.388 5.333-5.333v0-5.333h-5.333c-2.946 0-5.333 2.388-5.333 5.333s2.388 5.333 5.333 5.333v0z"></path>
<path fill="#a259ff" style="fill: var(--color3, #a259ff)" d="M5.338 16c0-2.946 2.388-5.333 5.333-5.333v0h5.333v10.667h-5.333c-2.946 0-5.333-2.388-5.333-5.333v0z"></path>
<path fill="#f24e1e" style="fill: var(--color4, #f24e1e)" d="M5.338 5.333c0-2.944 2.385-5.331 5.329-5.333h5.334v10.667h-5.329c-2.946 0-5.333-2.388-5.333-5.333v0z"></path>
<path fill="#ff7262" style="fill: var(--color5, #ff7262)" d="M16.004 0h5.333c2.946 0 5.333 2.388 5.333 5.333s-2.388 5.333-5.333 5.333v0h-5.333z"></path>
<path fill="#1abcfe" style="fill: var(--color6, #1abcfe)" d="M26.671 16c0 2.946-2.388 5.333-5.333 5.333s-5.333-2.388-5.333-5.333v0c0-2.946 2.388-5.333 5.333-5.333s5.333 2.388 5.333 5.333v0z"></path>
</symbol>
<symbol id="icon-NodeJs" viewBox="0 0 32 32">
<path fill="#8cc84b" style="fill: var(--color7, #8cc84b)" d="M14.656 0.427c0.8-0.453 1.82-0.455 2.6 0l11.944 6.733c0.747 0.42 1.247 1.253 1.24 2.114v13.5c0.005 0.897-0.544 1.748-1.332 2.16l-11.88 6.702c-0.363 0.204-0.796 0.324-1.258 0.324-0.512 0-0.99-0.148-1.392-0.404l0.011 0.006-3.565-2.060c-0.243-0.145-0.516-0.26-0.688-0.495 0.152-0.204 0.422-0.23 0.642-0.32 0.496-0.158 0.95-0.4 1.406-0.656 0.115-0.080 0.256-0.050 0.366 0.022l3.040 1.758c0.217 0.125 0.437-0.040 0.623-0.145l11.665-6.583c0.128-0.065 0.214-0.195 0.214-0.345 0-0.012-0.001-0.024-0.002-0.036l0 0.002v-13.37c0.001-0.010 0.001-0.022 0.001-0.034 0-0.17-0.102-0.317-0.249-0.382l-0.003-0.001-11.85-6.673c-0.065-0.046-0.146-0.073-0.233-0.073s-0.167 0.027-0.233 0.073l0.001-0.001-11.833 6.687c-0.149 0.065-0.251 0.21-0.251 0.38 0 0.012 0.001 0.024 0.002 0.036l-0-0.002v13.37c-0.001 0.011-0.002 0.023-0.002 0.035 0 0.15 0.088 0.279 0.214 0.339l0.002 0.001 3.162 1.785c0.594 0.32 1.323 0.5 1.977 0.265 0.572-0.22 0.971-0.765 0.971-1.404 0-0.002 0-0.004 0-0.006v0l0.003-13.29c-0.014-0.197 0.172-0.36 0.363-0.34h1.52c0.2-0.005 0.357 0.207 0.33 0.405l-0.003 13.374c0.001 1.188-0.487 2.48-1.586 3.063-1.354 0.7-3.028 0.553-4.366-0.12l-3.4-1.88c-0.792-0.412-1.325-1.223-1.332-2.159v-13.501c0.007-0.919 0.518-1.718 1.269-2.135l0.013-0.006 11.878-6.715zM18.1 9.785c1.727-0.1 3.576-0.066 5.13 0.785 1.203 0.652 1.87 2.020 1.892 3.358-0.034 0.18-0.222 0.28-0.394 0.267-0.5-0.001-1.002 0.007-1.504-0.003-0.213 0.008-0.336-0.188-0.363-0.376-0.144-0.64-0.493-1.273-1.095-1.582-0.924-0.463-1.996-0.44-3.004-0.43-0.736 0.040-1.527 0.103-2.15 0.535-0.48 0.328-0.624 1-0.453 1.522 0.16 0.383 0.603 0.506 0.964 0.62 2.082 0.544 4.287 0.5 6.33 1.207 0.845 0.292 1.672 0.86 1.962 1.745 0.378 1.186 0.213 2.604-0.63 3.556-0.684 0.784-1.68 1.2-2.675 1.442-1.323 0.295-2.695 0.302-4.038 0.17-1.263-0.144-2.577-0.476-3.552-1.336-0.834-0.724-1.24-1.852-1.2-2.94 0.010-0.184 0.193-0.312 0.37-0.297h1.5c0.202-0.014 0.35 0.16 0.36 0.35 0.093 0.6 0.322 1.25 0.854 1.6 1.026 0.662 2.313 0.616 3.487 0.635 0.973-0.043 2.065-0.056 2.86-0.7 0.42-0.367 0.543-0.98 0.43-1.508-0.123-0.446-0.6-0.653-1-0.8-2.055-0.65-4.285-0.414-6.32-1.15-0.826-0.292-1.625-0.844-1.942-1.693-0.443-1.2-0.24-2.687 0.693-3.607 0.9-0.915 2.22-1.268 3.47-1.394z"></path>
</symbol>
<symbol id="icon-w3_html5-icon" viewBox="0 0 32 32">
<path fill="#e44d26" style="fill: var(--color8, #e44d26)" d="M4.46 28.802l-2.568-28.801h28.216l-2.57 28.797-11.556 3.202z"></path>
<path fill="#f16529" style="fill: var(--color9, #f16529)" d="M25.337 26.964l2.197-24.608h-11.534v27.197z"></path>
<path fill="#ebebeb" style="fill: var(--color10, #ebebeb)" d="M15.988 5.888h-8.846l0.953 10.682h7.905v-3.532h-4.674l-0.323-3.617h4.997v-3.533zM16 22.2l-0.015 0.004-3.934-1.062-0.25-2.817h-3.548l0.495 5.546 7.236 2 0.016-0.005z"></path>
<path fill="#fff" style="fill: var(--color11, #fff)" d="M15.988 16.57h4.35l-0.4 4.58-3.94 1.063v3.675l7.242-2.007 0.97-10.845h-8.21zM24.752 6.836l0.084-0.948h-8.85v3.532h8.532l0.070-0.794z"></path>
</symbol>
<symbol id="icon-w3_css-iconold" viewBox="0 0 32 32">
<path fill="#264de4" style="fill: var(--color12, #264de4)" d="M30.115-0l-2.57 28.796-11.554 3.203-11.523-3.199-2.568-28.8z"></path>
<path fill="#2965f1" style="fill: var(--color13, #2965f1)" d="M16.007 29.55l9.337-2.588 2.197-24.607h-11.533z"></path>
<path fill="#ebebeb" style="fill: var(--color10, #ebebeb)" d="M16.007 13.036h-8.221l0.317 3.532h7.904zM16.007 5.887h-8.857l0.321 3.532h8.536zM8.261 18.335l0.495 5.546 7.236 2.009 0.016-0.005v-3.675l-0.015 0.004-3.934-1.062-0.251-2.817h-1.912z"></path>
<path fill="#fff" style="fill: var(--color11, #fff)" d="M20.345 16.568l-0.41 4.581-3.94 1.063v3.675l7.241-2.007 0.053-0.597 0.83-9.299 0.086-0.948 0.638-7.149h-8.848v3.532h4.977l-0.321 3.617h-4.656v3.532z"></path>
</symbol>
<symbol id="icon-javascript-icon" viewBox="0 0 32 32">
<path fill="#f7df1e" style="fill: var(--color14, #f7df1e)" d="M0 0h32v32h-32z"></path>
<path fill="#000" style="fill: var(--color15, #000)" d="M8.414 26.741l2.449-1.482c0.473 0.837 0.902 1.546 1.933 1.546 0.988 0 1.611-0.387 1.611-1.89v-10.225h3.007v10.268c0 3.115-1.825 4.532-4.489 4.532-2.406 0-3.803-1.245-4.511-2.749zM19.047 26.419l2.448-1.418c0.645 1.052 1.482 1.826 2.965 1.826 1.245 0 2.040-0.623 2.040-1.482 0-1.032-0.816-1.396-2.191-1.997l-0.752-0.323c-2.17-0.924-3.609-2.084-3.609-4.532 0-2.255 1.718-3.974 4.404-3.974 1.912 0 3.287 0.666 4.275 2.406l-2.341 1.503c-0.515-0.924-1.074-1.288-1.933-1.288-0.881 0-1.439 0.558-1.439 1.288 0 0.902 0.558 1.267 1.847 1.826l0.752 0.323c2.556 1.095 3.995 2.212 3.995 4.725 0 2.707-2.126 4.189-4.983 4.189-2.793 0-4.597-1.331-5.477-3.072z"></path>
</symbol>
<symbol id="icon-reactrouter-icon" viewBox="0 0 32 32">
<path fill="#f44250" style="fill: var(--color16, #f44250)" d="M24.872 12.659c-0.916-0.288-1.388-0.191-2.349-0.296-1.484-0.162-2.075-0.742-2.326-2.235-0.14-0.834 0.026-2.054-0.333-2.809-0.685-1.44-2.289-2.087-3.9-1.718-1.361 0.311-2.492 1.671-2.555 3.067-0.072 1.594 0.836 2.953 2.395 3.422 0.74 0.223 1.528 0.335 2.301 0.393 1.419 0.104 1.527 0.892 1.912 1.541 0.242 0.409 0.477 0.813 0.477 2.033s-0.236 1.623-0.477 2.032c-0.384 0.648-0.857 1.072-2.276 1.177-0.773 0.057-1.562 0.169-2.301 0.393-1.559 0.47-2.467 1.828-2.395 3.422 0.063 1.395 1.194 2.755 2.554 3.067 1.611 0.37 3.215-0.277 3.9-1.718 0.36-0.756 0.558-1.611 0.698-2.445 0.253-1.493 0.844-2.073 2.326-2.235 0.96-0.105 1.954 0 2.854-0.511 0.951-0.695 1.8-1.738 1.8-3.182s-0.915-2.96-2.305-3.398z"></path>
<path fill="#121212" style="fill: var(--color17, #121212)" d="M9.643 19.444c-1.871 0-3.397-1.529-3.397-3.404s1.526-3.404 3.397-3.404c1.871 0 3.398 1.529 3.398 3.404 0 1.873-1.528 3.404-3.398 3.404zM3.385 26.36c-1.868-0.005-3.389-1.54-3.385-3.416 0.004-1.873 1.536-3.398 3.409-3.392 1.87 0.005 3.391 1.54 3.385 3.415-0.004 1.872-1.537 3.396-3.409 3.392zM28.628 26.36c-1.874 0.011-3.412-1.508-3.422-3.378-0.011-1.878 1.505-3.418 3.372-3.429 1.874-0.011 3.412 1.508 3.422 3.378 0.010 1.876-1.505 3.419-3.372 3.429z"></path>
</symbol>
<symbol id="icon-js_redux-icon" viewBox="0 0 32 32">
<path fill="#764abc" style="fill: var(--color18, #764abc)" d="M22.15 22.050c1.2-0.1 2.1-1.15 2.050-2.35s-1.050-2.2-2.3-2.2h-0.1c-1.25 0.050-2.25 1.1-2.2 2.35 0.050 0.6 0.3 1.15 0.65 1.5-1.4 2.75-3.5 4.7-6.7 6.4-2.15 1.15-4.4 1.55-6.65 1.25-1.85-0.25-3.25-1.050-4.15-2.4-1.3-2-1.45-4.15-0.35-6.3 0.75-1.55 2-2.7 2.75-3.25-0.15-0.55-0.4-1.45-0.55-2.1-5.75 4.25-5.15 10.050-3.35 12.8 1.35 2.050 4.050 3.3 7.1 3.3 0.8 0 1.65-0.1 2.45-0.3 5.2-1.050 9.15-4.1 11.35-8.7z"></path>
<path fill="#764abc" style="fill: var(--color18, #764abc)" d="M29.35 17c-3.1-3.6-7.65-5.6-12.85-5.6h-0.65c-0.35-0.75-1.15-1.2-2-1.2h-0.1c-1.25 0-2.25 1.050-2.2 2.3 0.050 1.2 1.050 2.2 2.3 2.2h0.1c0.9-0.050 1.65-0.6 2-1.4h0.75c3.1 0 6.050 0.9 8.65 2.65 2.050 1.35 3.5 3.1 4.3 5.2 0.7 1.7 0.65 3.4-0.1 4.8-1.15 2.15-3.050 3.35-5.6 3.35-1.65 0-3.2-0.5-4-0.85-0.45 0.4-1.25 1.050-1.85 1.45 1.75 0.8 3.55 1.25 5.25 1.25 3.9 0 6.8-2.15 7.9-4.3 1.25-2.35 1.15-6.4-1.9-9.85z"></path>
<path fill="#764abc" style="fill: var(--color18, #764abc)" d="M8.65 22.7c0.050 1.2 1.050 2.2 2.3 2.2h0.050c1.25-0.050 2.25-1.1 2.2-2.35-0.050-1.2-1.050-2.2-2.3-2.2h-0.1c-0.1 0-0.2 0-0.3 0.050-1.65-2.75-2.35-5.8-2.1-9.050 0.15-2.45 1-4.55 2.4-6.3 1.2-1.5 3.45-2.25 5-2.3 4.4-0.050 6.2 5.3 6.35 7.45 0.55 0.1 1.45 0.4 2.050 0.6-0.5-6.6-4.55-10-8.45-10-3.65 0-7.050 2.65-8.4 6.55-1.85 5.2-0.65 10.2 1.65 14.15-0.25 0.3-0.4 0.75-0.35 1.2z"></path>
</symbol>
<symbol id="icon-typescriptlang-icon" viewBox="0 0 32 32">
<path fill="#3178c6" style="fill: var(--color19, #3178c6)" d="M3.125 0h25.75c1.726 0 3.125 1.399 3.125 3.125v25.75c0 1.726-1.399 3.125-3.125 3.125h-25.75c-1.726 0-3.125-1.399-3.125-3.125v-25.75c0-1.726 1.399-3.125 3.125-3.125z"></path>
<path fill="#fff" style="fill: var(--color11, #fff)" d="M19.808 25.464v3.129c0.509 0.261 1.11 0.456 1.805 0.587s1.427 0.195 2.196 0.195c0.75 0 1.462-0.072 2.137-0.215s1.267-0.38 1.775-0.709c0.504-0.327 0.912-0.761 1.199-1.272l0.009-0.018c0.296-0.532 0.445-1.188 0.445-1.97 0-0.567-0.085-1.064-0.255-1.491-0.178-0.442-0.426-0.82-0.734-1.14l0.001 0.001c-0.334-0.342-0.711-0.638-1.124-0.881l-0.025-0.014c-0.419-0.25-0.916-0.501-1.43-0.717l-0.081-0.030c-0.495-0.201-0.859-0.367-1.216-0.544l0.111 0.050c-0.319-0.154-0.592-0.316-0.848-0.5l0.017 0.012c-0.229-0.166-0.405-0.343-0.529-0.528-0.117-0.173-0.186-0.386-0.186-0.616 0-0.005 0-0.011 0-0.016v0.001c0-0.215 0.055-0.409 0.166-0.581s0.267-0.321 0.47-0.445c0.202-0.123 0.45-0.22 0.744-0.288 0.281-0.065 0.604-0.103 0.936-0.103 0.015 0 0.030 0 0.045 0l-0.002-0c0.608 0.005 1.193 0.092 1.748 0.251l-0.046-0.011c0.336 0.094 0.621 0.199 0.894 0.324l-0.038-0.016c0.295 0.132 0.547 0.275 0.783 0.44l-0.015-0.010v-2.923c-0.448-0.175-0.973-0.316-1.517-0.401l-0.043-0.005c-0.564-0.088-1.212-0.132-1.942-0.132-0.744 0-1.448 0.080-2.113 0.24s-1.25 0.409-1.756 0.748c-0.497 0.333-0.901 0.768-1.189 1.277l-0.010 0.019c-0.294 0.525-0.44 1.152-0.44 1.882 0 0.933 0.269 1.727 0.807 2.386s1.355 1.215 2.45 1.672c0.43 0.176 0.831 0.349 1.204 0.518s0.692 0.346 0.963 0.528c0.27 0.183 0.484 0.381 0.64 0.596s0.235 0.459 0.235 0.733c0 0.202-0.049 0.389-0.147 0.562s-0.246 0.323-0.445 0.45c-0.199 0.127-0.447 0.226-0.744 0.298s-0.644 0.108-1.041 0.108c-0.678 0-1.35-0.119-2.015-0.357-0.711-0.261-1.324-0.623-1.857-1.078l0.008 0.007zM14.549 17.755h4.014v-2.567h-11.188v2.567h3.994v11.433h3.18z"></path>
</symbol>
<symbol id="icon-mongodb-icon" viewBox="0 0 32 32">
<path fill="#599636" style="fill: var(--color20, #599636)" d="M15.9 0.087l0.854 1.604c0.192 0.296 0.4 0.558 0.645 0.802 0.704 0.696 1.36 1.435 1.966 2.215l0.038 0.051c1.447 1.9 2.423 4.010 3.12 6.292 0.418 1.394 0.645 2.824 0.662 4.27 0.070 4.323-1.412 8.035-4.4 11.12-0.476 0.479-0.988 0.919-1.534 1.317l-0.036 0.025c-0.296 0-0.436-0.227-0.558-0.436-0.211-0.362-0.364-0.785-0.433-1.235l-0.003-0.020c-0.105-0.523-0.174-1.046-0.14-1.586v-0.244c-0.024-0.052-0.285-24.052-0.181-24.175z"></path>
<path fill="#6cac48" style="fill: var(--color21, #6cac48)" d="M15.9 0.034c-0.035-0.070-0.070-0.017-0.105 0.017 0.017 0.35-0.105 0.662-0.296 0.96-0.21 0.296-0.488 0.523-0.767 0.767-1.55 1.342-2.77 2.963-3.747 4.776-1.3 2.44-1.97 5.055-2.16 7.808-0.087 0.993 0.314 4.497 0.627 5.508 0.854 2.684 2.388 4.933 4.375 6.885 0.488 0.47 1.010 0.906 1.55 1.325 0.157 0 0.174-0.14 0.21-0.244 0.061-0.188 0.116-0.418 0.153-0.653l0.004-0.027 0.35-2.614-0.194-24.508z"></path>
<path fill="#c2bfbf" style="fill: var(--color22, #c2bfbf)" d="M16.754 28.845c0.035-0.4 0.227-0.732 0.436-1.063-0.21-0.087-0.366-0.26-0.488-0.453-0.096-0.164-0.184-0.354-0.253-0.552l-0.007-0.023c-0.244-0.732-0.296-1.5-0.366-2.248v-0.453c-0.087 0.070-0.105 0.662-0.105 0.75-0.057 0.874-0.169 1.68-0.334 2.466l0.020-0.113c-0.052 0.314-0.087 0.627-0.28 0.906 0 0.035 0 0.070 0.017 0.122 0.314 0.924 0.4 1.865 0.453 2.824v0.35c0 0.418-0.017 0.33 0.33 0.47 0.14 0.052 0.296 0.070 0.436 0.174 0.105 0 0.122-0.087 0.122-0.157l-0.052-0.575v-1.604c-0.017-0.28 0.035-0.558 0.070-0.82z"></path>
</symbol>
<symbol id="icon-getpostman-icon" viewBox="0 0 32 32">
<path fill="#ff6c37" style="fill: var(--color23, #ff6c37)" d="M28.663 6.22c-2.954-3.8-7.526-6.221-12.664-6.221-8.837 0-16 7.163-16 16s7.163 16 16 16c3.701 0 7.108-1.257 9.819-3.366l-0.036 0.027c6.99-5.402 8.28-15.447 2.88-22.44z"></path>
<path fill="#fff" style="fill: var(--color11, #fff)" d="M21.396 10.194l-6.747 6.8-1.906-1.96c6.64-6.64 7.306-6.040 8.653-4.84z"></path>
<path fill="#ff6c37" style="fill: var(--color23, #ff6c37)" d="M14.65 17.18c-0.062-0.002-0.118-0.027-0.16-0.067l-1.92-1.92c-0.042-0.043-0.067-0.102-0.067-0.167s0.026-0.124 0.067-0.167l-0 0c6.547-6.546 7.44-6.24 8.986-4.84 0.049 0.039 0.080 0.099 0.080 0.167 0 0.002-0 0.005-0 0.007v-0c0.010 0.065-0.015 0.132-0.067 0.174l-6.747 6.747c-0.045 0.041-0.105 0.067-0.171 0.067-0.001 0-0.002 0-0.003 0h0zM13.076 15.034l1.573 1.573 6.4-6.4c-0.266-0.331-0.671-0.542-1.126-0.542-0.285 0-0.55 0.083-0.774 0.225l0.006-0.003c-1.16 0.52-3.026 2.107-6.080 5.146z"></path>
<path fill="#fff" style="fill: var(--color11, #fff)" d="M16.584 18.874l-1.84-1.88 6.747-6.667c1.814 1.774-0.88 4.734-4.907 8.546z"></path>
<path fill="#ff6c37" style="fill: var(--color23, #ff6c37)" d="M16.584 19.114c-0.062-0.005-0.117-0.029-0.16-0.067l0 0-1.88-1.84c-0.013-0.032-0.021-0.068-0.021-0.107s0.008-0.075 0.022-0.109l-0.001 0.002c-0.009-0.026-0.015-0.056-0.015-0.087s0.005-0.061 0.016-0.089l-0.001 0.002 6.747-6.747c0.045-0.043 0.106-0.069 0.173-0.069s0.128 0.026 0.173 0.069l-0-0c0.411 0.379 0.668 0.92 0.668 1.522 0 0.023-0 0.046-0.001 0.068l0-0.003c0 1.8-2.053 4.066-5.547 7.373-0.045 0.045-0.105 0.074-0.172 0.080l-0.001 0zM15.090 16.994l1.506 1.506c2.666-2.52 5.213-5.12 5.227-6.88 0.001-0.018 0.001-0.038 0.001-0.059 0-0.369-0.131-0.707-0.35-0.97l0.002 0.002z"></path>
<path fill="#fff" style="fill: var(--color11, #fff)" d="M12.796 15.074l1.333 1.333c0.017 0.015 0.027 0.036 0.027 0.060s-0.010 0.045-0.027 0.060l-0 0-2.813 0.6c-0.017 0.004-0.036 0.006-0.056 0.006-0.147 0-0.267-0.119-0.267-0.267 0-0.076 0.032-0.144 0.083-0.193l0-0 1.64-1.627s0.053 0 0.080 0.027z"></path>
<path fill="#ff6c37" style="fill: var(--color23, #ff6c37)" d="M11.25 17.394c-0.186-0.002-0.349-0.102-0.439-0.251l-0.001-0.002c-0.037-0.069-0.059-0.151-0.059-0.237 0-0.142 0.058-0.27 0.152-0.362l0-0 1.627-1.64c0.056-0.051 0.131-0.081 0.213-0.081s0.157 0.031 0.214 0.082l-0-0 1.334 1.334c0.079 0.075 0.11 0.189 0.080 0.294s-0.118 0.189-0.226 0.213l-2.813 0.6zM12.743 15.367l-1.507 1.506 2.494-0.534z"></path>
<path fill="#fff" style="fill: var(--color11, #fff)" d="M24.983 6.447c-0.965-0.931-2.481-0.97-3.493-0.091s-1.185 2.387-0.397 3.471 2.273 1.389 3.424 0.7l-1.814-1.813z"></path>
<path fill="#ff6c37" style="fill: var(--color23, #ff6c37)" d="M23.183 11.14c-1.16-0.015-2.149-0.727-2.571-1.735l-0.007-0.019c-0.134-0.318-0.211-0.687-0.211-1.074 0-0.773 0.31-1.474 0.812-1.985l-0 0c0.515-0.506 1.221-0.818 2-0.818s1.485 0.312 2 0.818l-0-0c0.051 0.043 0.080 0.106 0.080 0.173-0 0.069-0.031 0.131-0.080 0.173l-0 0-2.16 2.040 1.64 1.614c0.043 0.041 0.070 0.099 0.070 0.163 0 0.013-0.001 0.026-0.003 0.039l0-0.001c-0.008 0.073-0.048 0.135-0.106 0.173l-0.001 0.001c-0.417 0.264-0.921 0.426-1.463 0.44l-0.004 0zM23.183 5.966c-0.95 0.005-1.8 0.577-2.157 1.45s-0.163 1.879 0.503 2.55c0.423 0.425 1.008 0.688 1.654 0.688 0.337 0 0.658-0.072 0.947-0.2l-0.015 0.006-1.573-1.573c-0.049-0.039-0.080-0.099-0.080-0.167s0.031-0.127 0.080-0.166l0-0 2.080-2.094c-0.395-0.305-0.895-0.49-1.439-0.494h-0.001z"></path>
<path fill="#fff" style="fill: var(--color11, #fff)" d="M25.023 6.487l-2.28 2.267 1.814 1.813c0.192-0.111 0.358-0.235 0.508-0.375l-0.002 0.002c0.452-0.477 0.73-1.122 0.73-1.833 0-0.731-0.294-1.393-0.77-1.874l0 0z"></path>
<path fill="#ff6c37" style="fill: var(--color23, #ff6c37)" d="M24.517 10.767c-0.003 0-0.007 0-0.011 0-0.059 0-0.112-0.026-0.149-0.067l-0-0-1.814-1.813c-0.049-0.039-0.080-0.099-0.080-0.167s0.031-0.127 0.080-0.166l0-0 2.267-2.226c0.044-0.065 0.117-0.107 0.2-0.107s0.156 0.042 0.199 0.106l0.001 0.001c0.519 0.509 0.84 1.217 0.84 2s-0.322 1.491-0.84 2l-0 0c-0.154 0.164-0.33 0.305-0.522 0.42l-0.011 0.006c-0.028 0.014-0.061 0.023-0.097 0.023-0.023 0-0.044-0.003-0.065-0.010l0.002 0zM23.050 8.714l1.506 1.507c0.109-0.077 0.205-0.156 0.295-0.241l-0.001 0.001c0.427-0.426 0.692-1.015 0.694-1.666v-0c0-0.001 0-0.003 0-0.004 0-0.582-0.217-1.114-0.576-1.518l0.002 0.002z"></path>
<path fill="#fff" style="fill: var(--color11, #fff)" d="M21.677 10.474c-0.174-0.164-0.409-0.264-0.667-0.264s-0.493 0.1-0.667 0.264l0-0-6.040 6.026 1 1.014 6.386-5.6c0.188-0.18 0.305-0.433 0.305-0.714 0-0.287-0.122-0.545-0.317-0.726l-0.001-0.001z"></path>
<path fill="#ff6c37" style="fill: var(--color23, #ff6c37)" d="M15.25 17.754c-0.062-0.002-0.118-0.027-0.16-0.067l-1.013-1.013c-0.042-0.043-0.067-0.102-0.067-0.167s0.026-0.124 0.067-0.167l-0 0 6.040-6.014c0.222-0.222 0.529-0.359 0.867-0.359 0.678 0 1.227 0.549 1.227 1.227 0 0.014-0 0.027-0.001 0.040l0-0.002c-0.015 0.35-0.171 0.661-0.412 0.879l-0.001 0.001-6.386 5.6c-0.037 0.026-0.082 0.042-0.131 0.042-0.010 0-0.020-0.001-0.030-0.002l0.001 0zM14.543 16.5l0.666 0.68 6.266-5.454c0.155-0.135 0.247-0.328 0.253-0.534s-0.075-0.406-0.227-0.546c-0.135-0.134-0.321-0.218-0.527-0.218s-0.392 0.083-0.527 0.218l0-0z"></path>
<path fill="#fff" style="fill: var(--color11, #fff)" d="M9.623 23.367c-0.016 0.022-0.026 0.050-0.026 0.080s0.010 0.058 0.027 0.080l-0-0 0.267 1.16c0.003 0.016 0.004 0.034 0.004 0.053 0 0.126-0.068 0.236-0.169 0.296l-0.002 0.001c-0.047 0.028-0.104 0.044-0.164 0.044-0.084 0-0.16-0.032-0.217-0.083l0 0-1.827-1.76 5.694-5.739h1.973l1.333 1.334c-1.993 1.75-4.261 3.263-6.714 4.455l-0.18 0.079z"></path>
<path fill="#ff6c37" style="fill: var(--color23, #ff6c37)" d="M9.504 25.327c-0.151-0.003-0.3-0.065-0.4-0.174l-1.747-1.747c-0.049-0.039-0.080-0.099-0.080-0.167s0.031-0.127 0.080-0.166l0-0 5.733-5.747c0.031-0.033 0.072-0.057 0.119-0.066l0.001-0h1.986c0.024-0.009 0.051-0.014 0.080-0.014s0.056 0.005 0.082 0.014l-0.002-0.001 1.333 1.334c0.042 0.039 0.069 0.095 0.069 0.157 0 0.011-0.001 0.021-0.002 0.031l0-0.001c0 0.002 0 0.004 0 0.006 0 0.067-0.031 0.128-0.080 0.167l-0 0-0.107 0.093c-1.985 1.665-4.233 3.127-6.646 4.301l-0.194 0.085 0.254 1.080c0.010 0.040 0.015 0.085 0.015 0.132 0 0.313-0.25 0.567-0.561 0.575h-0.001zM7.877 23.233l1.573 1.587c0.014 0.013 0.033 0.020 0.053 0.020s0.039-0.008 0.053-0.020l-0 0c0.009-0.013 0.015-0.029 0.015-0.047s-0.006-0.034-0.015-0.047l0 0-0.267-1.16c-0.007-0.027-0.011-0.059-0.011-0.091 0-0.147 0.085-0.274 0.209-0.335l0.002-0.001c2.54-1.243 4.729-2.674 6.718-4.336l-0.052 0.042-1.094-1.093h-1.787z"></path>
<path fill="#fff" style="fill: var(--color11, #fff)" d="M6.144 24.607l1.333-1.334 2.053 2.053-3.267-0.227c-0.138-0.011-0.246-0.126-0.246-0.266 0-0.095 0.050-0.179 0.125-0.226l0.001-0.001z"></path>
<path fill="#ff6c37" style="fill: var(--color23, #ff6c37)" d="M9.57 25.527l-3.253-0.227c-0.193-0.018-0.359-0.15-0.427-0.326s-0.027-0.386 0.107-0.527l1.333-1.334c0.043-0.042 0.102-0.067 0.167-0.067s0.124 0.026 0.167 0.067l2.040 2.040c0.027 0.037 0.043 0.083 0.043 0.133s-0.016 0.096-0.044 0.134l0-0.001c-0.031 0.049-0.077 0.087-0.132 0.106l-0.002 0.001zM6.316 24.78l2.667 0.174-1.466-1.373z"></path>
<path fill="#fff" style="fill: var(--color11, #fff)" d="M15.37 17.661l-2.694 0.413 1.56-1.547z"></path>
<path fill="#ff6c37" style="fill: var(--color23, #ff6c37)" d="M12.677 18.327c-0.002 0-0.004 0-0.006 0-0.092 0-0.171-0.054-0.207-0.132l-0.001-0.001c-0.027-0.037-0.044-0.083-0.044-0.133s0.016-0.096 0.044-0.134l-0 0.001 1.546-1.56c0.045-0.043 0.106-0.069 0.173-0.069s0.128 0.026 0.173 0.069l1.134 1.133c0.022 0.034 0.035 0.076 0.035 0.12s-0.013 0.086-0.035 0.121l0.001-0.001c-0.023 0.089-0.095 0.157-0.185 0.173l-0.001 0-2.666 0.413zM14.236 16.873l-0.867 0.866 1.493-0.227z"></path>
<path fill="#fff" style="fill: var(--color11, #fff)" d="M15.37 17.66l-1.88 0.24c-0.016 0.004-0.034 0.006-0.053 0.006-0.133 0-0.24-0.107-0.24-0.24 0-0.064 0.025-0.123 0.067-0.166l0.973-0.973z"></path>
<path fill="#ff6c37" style="fill: var(--color23, #ff6c37)" d="M13.437 18.154c-0.183-0.002-0.341-0.102-0.425-0.251l-0.001-0.002c-0.038-0.067-0.061-0.148-0.061-0.234 0-0.133 0.054-0.253 0.141-0.34v0l0.973-0.974c0.045-0.043 0.106-0.069 0.173-0.069s0.128 0.026 0.173 0.069l1.133 1.133c0.046 0.044 0.075 0.106 0.075 0.174 0 0.126-0.097 0.229-0.221 0.239l-0.001 0-1.867 0.24zM13.437 17.66l1.414-0.174-0.627-0.627-0.8 0.8zM25.037 8.021c-0.036-0.059-0.099-0.097-0.172-0.097-0.030 0-0.058 0.006-0.083 0.018l0.001-0c-0.044 0.023-0.078 0.062-0.093 0.109l-0 0.001c-0.005 0.017-0.009 0.036-0.009 0.056 0 0.032 0.008 0.062 0.022 0.088l-0-0.001c0.093 0.197 0.067 0.429-0.067 0.6-0.031 0.031-0.050 0.073-0.050 0.12 0 0.002 0 0.004 0 0.007v-0c0.001 0.049 0.019 0.093 0.050 0.127l-0-0c0.016 0.006 0.034 0.010 0.053 0.010s0.037-0.004 0.054-0.010l-0.001 0c0.013 0.003 0.027 0.005 0.043 0.005 0.052 0 0.099-0.023 0.131-0.059l0-0c0.129-0.157 0.207-0.36 0.207-0.582 0-0.142-0.032-0.277-0.090-0.397l0.002 0.006z"></path>
</symbol>
<symbol id="icon-vercel-icon" viewBox="0 0 32 32">
<path d="M15.995 2l15.996 27.706h-31.991l15.995-27.706z"></path>
</symbol>
<symbol id="icon-render" viewBox="0 0 32 32">
<path d="M24.351 0.009c-4.161-0.196-7.659 2.812-8.256 6.776-0.024 0.184-0.060 0.363-0.089 0.54-0.928 4.937-5.248 8.676-10.436 8.676-0.004 0-0.009 0-0.015 0-1.866 0-3.618-0.484-5.139-1.333l0.054 0.027c-0.038-0.022-0.084-0.035-0.133-0.035-0.149 0-0.269 0.121-0.269 0.269 0 0.001 0 0.002 0 0.004v-0 17.067h15.933v-11.999c0-2.208 1.784-4 3.983-4h3.984c4.509 0 8.137-3.756 7.96-8.325-0.16-4.112-3.48-7.471-7.576-7.667z"></path>
</symbol>
<symbol id="icon-swagger" viewBox="0 0 32 32">
<path fill="#85ea2d" style="fill: var(--color24, #85ea2d)" d="M16 31.237c-8.402 0-15.238-6.835-15.238-15.237s6.836-15.237 15.238-15.237c8.402 0 15.237 6.836 15.237 15.238s-6.836 15.237-15.238 15.237z"></path>
<path fill="#173647" style="fill: var(--color25, #173647)" d="M16 1.525c7.994 0 14.475 6.48 14.475 14.475s-6.48 14.475-14.475 14.475c-7.994 0-14.475-6.481-14.475-14.475s6.481-14.475 14.475-14.475zM16 0c-8.822 0-16 7.178-16 16s7.178 16 16 16 16-7.178 16-16c0-8.823-7.178-16-16-16z"></path>
<path fill="#173647" style="fill: var(--color25, #173647)" d="M10.075 10.827c-0.049 0.547 0.018 1.114-0.018 1.667-0.043 0.554-0.111 1.101-0.222 1.649-0.154 0.781-0.64 1.372-1.31 1.864 1.305 0.849 1.452 2.166 1.538 3.501 0.043 0.72 0.025 1.446 0.098 2.16 0.055 0.554 0.271 0.695 0.843 0.713 0.234 0.006 0.473 0 0.745 0v1.71c-1.692 0.289-3.088-0.191-3.433-1.624-0.111-0.523-0.185-1.058-0.209-1.6-0.037-0.572 0.024-1.144-0.018-1.716-0.123-1.569-0.326-2.098-1.827-2.172v-1.95c0.088-0.021 0.199-0.041 0.312-0.054l0.014-0.001c0.824-0.043 1.175-0.296 1.353-1.107 0.086-0.455 0.136-0.917 0.154-1.384 0.062-0.892 0.037-1.803 0.191-2.688 0.215-1.274 1.003-1.889 2.314-1.963 0.369-0.019 0.744 0 1.169 0v1.748c-0.178 0.012-0.332 0.037-0.492 0.037-1.064-0.037-1.12 0.326-1.2 1.212zM12.123 14.876h-0.024c-0.615-0.031-1.144 0.449-1.175 1.064-0.031 0.621 0.449 1.151 1.064 1.181h0.074c0.609 0.037 1.132-0.431 1.169-1.040v-0.061c0.012-0.621-0.486-1.132-1.107-1.144zM15.981 14.876c-0.597-0.018-1.095 0.449-1.114 1.040 0 0.037 0 0.068 0.006 0.105 0 0.671 0.455 1.102 1.144 1.102 0.677 0 1.102-0.443 1.102-1.138-0.006-0.671-0.456-1.114-1.139-1.107zM19.931 14.876c-0.628-0.012-1.151 0.486-1.169 1.114 0 0.001 0 0.002 0 0.003 0 0.623 0.505 1.129 1.129 1.129 0.001 0 0.002 0 0.003 0h0.012c0.566 0.099 1.138-0.449 1.175-1.107 0.030-0.609-0.523-1.138-1.151-1.138zM25.352 14.968c-0.714-0.031-1.071-0.271-1.249-0.948-0.104-0.388-0.176-0.84-0.202-1.305l-0.001-0.018c-0.049-0.825-0.043-1.655-0.099-2.48-0.129-1.956-1.544-2.639-3.599-2.301v1.698c0.326 0 0.578 0 0.831 0.006 0.437 0.006 0.769 0.172 0.812 0.659 0.043 0.443 0.043 0.892 0.086 1.341 0.087 0.892 0.135 1.796 0.289 2.676 0.136 0.726 0.634 1.268 1.255 1.711-1.089 0.732-1.409 1.778-1.464 2.953-0.031 0.806-0.049 1.618-0.092 2.43-0.037 0.738-0.295 0.978-1.040 0.997-0.209 0.006-0.412 0.025-0.646 0.037v1.741c0.437 0 0.837 0.024 1.236 0 1.243-0.074 1.993-0.677 2.24-1.883 0.098-0.587 0.164-1.28 0.184-1.983l0-0.022c0.043-0.615 0.037-1.237 0.099-1.846 0.092-0.954 0.529-1.348 1.483-1.409 0.092-0.012 0.178-0.031 0.265-0.061v-1.95c-0.16-0.019-0.271-0.037-0.388-0.043z"></path>
</symbol>
</defs>
</svg>
